<svg width="24" height="24" viewBox="0 0 24 24" fill="none" xmlns="http://www.w3.org/2000/svg">
<g id="ic-fill-gender-neutral">
<g id="vector">
<path d="M7.24029 9.1622L8.86136 22.019H12.5711L13.1074 17.7655H17.7505L14.2279 8.68098L14.2016 8.81306C14.1757 8.44807 14.0334 8.12054 13.7746 7.83049C13.436 7.4508 13.0126 7.26096 12.5045 7.26096H8.92793C8.41981 7.26096 7.99644 7.4508 7.65781 7.83049C7.31901 8.21018 7.17984 8.65408 7.24029 9.1622Z" fill="#3B3C3F"/>
<path d="M9.46313 5.04625C9.81067 5.39379 10.2284 5.56756 10.7162 5.56756C11.2041 5.56756 11.6217 5.39379 11.9693 5.04625C12.3167 4.69888 12.4903 4.28128 12.4903 3.79343C12.4903 3.30541 12.3167 2.88772 11.9693 2.54035C11.6217 2.19281 11.2041 2.01904 10.7162 2.01904C10.2284 2.01904 9.81067 2.19281 9.46313 2.54035C9.11576 2.88772 8.94208 3.30541 8.94208 3.79343C8.94208 4.28128 9.11576 4.69888 9.46313 5.04625Z" fill="#3B3C3F"/>
</g>
</g>
</svg>
