<svg width="24" height="24" viewBox="0 0 24 24" fill="none" xmlns="http://www.w3.org/2000/svg">
<g id="ic-fill-sun">
<g id="vector">
<path d="M11.9805 6.01953C12.1488 6.01953 12.3156 6.02647 12.4805 6.04007V2.01953H11.4805V6.04007C11.6453 6.02647 11.8121 6.01953 11.9805 6.01953Z" fill="#3B3C3F"/>
<path d="M7.39963 8.1443L4.50977 5.25443L5.21687 4.54732L8.10686 7.43731C7.85201 7.65298 7.61538 7.88952 7.39963 8.1443Z" fill="#3B3C3F"/>
<path d="M15.8471 7.43143C16.1023 7.64671 16.3393 7.8829 16.5554 8.13734L19.3707 5.32335L18.6637 4.61609L15.8471 7.43143Z" fill="#3B3C3F"/>
<path d="M17.9805 12.0195C17.9805 12.1879 17.9735 12.3547 17.9599 12.5195H22V11.5195H17.9599C17.9735 11.6844 17.9805 11.8512 17.9805 12.0195Z" fill="#3B3C3F"/>
<path d="M15.8559 16.6002C16.1107 16.3845 16.3472 16.1478 16.5628 15.893L19.4186 18.7501L18.7114 19.4571L15.8559 16.6002Z" fill="#3B3C3F"/>
<path d="M11.9805 18.0195C11.8121 18.0195 11.6453 18.0126 11.4805 17.999L11.4805 22.0195H12.4805L12.4805 17.999C12.3156 18.0126 12.1488 18.0195 11.9805 18.0195Z" fill="#3B3C3F"/>
<path d="M7.39841 15.8933C7.61408 16.1482 7.85063 16.3848 8.10542 16.6005L5.17782 19.5282L4.4707 18.8211L7.39841 15.8933Z" fill="#3B3C3F"/>
<path d="M5.98047 12.0195C5.98047 11.8512 5.9874 11.6844 6.001 11.5195L1.98047 11.5195V12.5195L6.00101 12.5195C5.9874 12.3547 5.98047 12.1879 5.98047 12.0195Z" fill="#3B3C3F"/>
<path d="M11.9805 17.0195C14.7419 17.0195 16.9805 14.781 16.9805 12.0195C16.9805 9.25811 14.7419 7.01953 11.9805 7.01953C9.21904 7.01953 6.98047 9.25811 6.98047 12.0195C6.98047 14.781 9.21904 17.0195 11.9805 17.0195Z" fill="#3B3C3F"/>
</g>
</g>
</svg>
