<svg width="24" height="24" viewBox="0 0 24 24" fill="none" xmlns="http://www.w3.org/2000/svg">
<g id="ic-fill-plant">
<path id="vector" d="M2 20V18H7.75C7.38333 16.5833 6.6875 15.3625 5.6625 14.3375C4.6375 13.3125 3.41667 12.6167 2 12.25C2.33333 12.1667 2.6625 12.1042 2.9875 12.0625C3.3125 12.0208 3.65 12 4 12C6.23333 12 8.125 12.775 9.675 14.325C11.225 15.875 12 17.7667 12 20H2ZM14 20C14 19.3 13.925 18.6042 13.775 17.9125C13.625 17.2208 13.4083 16.5583 13.125 15.925C13.825 14.7417 14.7792 13.7917 15.9875 13.075C17.1958 12.3583 18.5333 12 20 12C20.35 12 20.6875 12.0208 21.0125 12.0625C21.3375 12.1042 21.6667 12.1667 22 12.25C20.5833 12.6167 19.3667 13.3125 18.35 14.3375C17.3333 15.3625 16.6333 16.5833 16.25 18H22V20H14ZM12 14.025C12 12.9417 12.2 11.925 12.6 10.975C13 10.025 13.55 9.1875 14.25 8.4625C14.95 7.7375 15.7708 7.15833 16.7125 6.725C17.6542 6.29167 18.6583 6.05833 19.725 6.025C18.7917 6.60833 17.975 7.325 17.275 8.175C16.575 9.025 16.0333 9.975 15.65 11.025C14.9167 11.375 14.2458 11.8042 13.6375 12.3125C13.0292 12.8208 12.4833 13.3917 12 14.025ZM10.175 12.15C9.975 12 9.775 11.8583 9.575 11.725C9.375 11.5917 9.16667 11.4583 8.95 11.325C8.95 11.225 8.95833 11.1208 8.975 11.0125C8.99167 10.9042 9 10.8 9 10.7C9 9.43333 8.8 8.23333 8.4 7.1C8 5.96667 7.43333 4.93333 6.7 4C7.8 4.45 8.75417 5.09583 9.5625 5.9375C10.3708 6.77917 10.9917 7.75 11.425 8.85C11.125 9.35 10.8667 9.87917 10.65 10.4375C10.4333 10.9958 10.275 11.5667 10.175 12.15Z" fill="#3B3C3F"/>
</g>
</svg>
