<svg width="24" height="24" viewBox="0 0 24 24" fill="none" xmlns="http://www.w3.org/2000/svg">
<g id="ic-fill-rain">
<g id="vector">
<path d="M6.51895 16.983C5.27296 16.983 4.21242 16.5483 3.33732 15.6788C2.46205 14.8094 2.02441 13.7517 2.02441 12.5057C2.02441 11.3609 2.41561 10.3449 3.19799 9.45765C3.98037 8.57023 4.95294 8.09381 6.11569 8.02839L6.11608 8.02587C6.63212 7.99856 7.14997 8.06016 7.6468 8.20889C8.26317 8.39341 8.83288 8.70776 9.31764 9.1308C9.80239 9.55384 10.191 10.0758 10.4572 10.6615C10.7234 11.2472 10.8612 11.8831 10.8612 12.5265H11.8542C11.8542 11.7414 11.6861 10.9653 11.3612 10.2505C11.0363 9.53577 10.5621 8.89884 9.97058 8.38259C9.37901 7.86634 8.68377 7.48273 7.9316 7.25756C7.41827 7.10388 6.88654 7.02643 6.35333 7.02652C6.68584 6.01255 7.27564 5.1448 8.12275 4.42327C9.23673 3.47442 10.5332 3 12.0123 3C13.6782 3 15.0935 3.58229 16.2581 4.74688C17.4227 5.91146 18.005 7.32674 18.005 8.99271V9.9915H18.6197C19.5762 10.0223 20.3788 10.3735 21.0273 11.045C21.6758 11.7167 22.0001 12.5307 22.0001 13.4872C22.0001 14.4669 21.6624 15.2944 20.9869 15.9697C20.3115 16.6452 19.484 16.983 18.5044 16.983H6.51895Z" fill="#3B3C3F"/>
<path d="M8.76587 21L7.2854 17.9805H8.41431L9.86353 21H8.76587Z" fill="#3B3C3F"/>
<path d="M11.2424 21L9.76196 17.9805H10.8909L12.3401 21H11.2424Z" fill="#3B3C3F"/>
<path d="M12.3401 17.9805L13.801 21H14.8987L13.4495 17.9805H12.3401Z" fill="#3B3C3F"/>
<path d="M14.8987 17.9805L16.3596 21H17.4573L16.0081 17.9805H14.8987Z" fill="#3B3C3F"/>
</g>
</g>
</svg>
